<?xml version="1.0" encoding="UTF-8" standalone="no"?>
<svg
   xmlns:dc="http://purl.org/dc/elements/1.1/"
   xmlns:cc="http://creativecommons.org/ns#"
   xmlns:rdf="http://www.w3.org/1999/02/22-rdf-syntax-ns#"
   xmlns:svg="http://www.w3.org/2000/svg"
   xmlns="http://www.w3.org/2000/svg"
   xmlns:sodipodi="http://sodipodi.sourceforge.net/DTD/sodipodi-0.dtd"
   xmlns:inkscape="http://www.inkscape.org/namespaces/inkscape"
   width="1151.9653mm"
   height="240mm"
   viewBox="0 0 1151.9653 239.99997"
   version="1.1"
   id="svg8"
   inkscape:version="1.0.2-2 (e86c870879, 2021-01-15)"
   sodipodi:docname="logo.svg"
   inkscape:export-filename="C:\Users\ceba_\Documents\working\12307\绘图.png"
   inkscape:export-xdpi="96"
   inkscape:export-ydpi="96">
  <defs
     id="defs2">
    <rect
       x="205.61905"
       y="102.80952"
       width="47.625"
       height="34.017857"
       id="rect39" />
  </defs>
  <sodipodi:namedview
     id="base"
     pagecolor="#ffffff"
     bordercolor="#666666"
     borderopacity="1.0"
     inkscape:pageopacity="0.0"
     inkscape:pageshadow="2"
     inkscape:zoom="0.1767767"
     inkscape:cx="2188.1367"
     inkscape:cy="419.36584"
     inkscape:document-units="mm"
     inkscape:current-layer="layer1"
     inkscape:document-rotation="0"
     showgrid="false"
     inkscape:window-width="1280"
     inkscape:window-height="658"
     inkscape:window-x="-6"
     inkscape:window-y="-6"
     inkscape:window-maximized="1"
     fit-margin-top="20"
     fit-margin-bottom="20"
     fit-margin-left="20"
     fit-margin-right="20" />
  <metadata
     id="metadata5">
    <rdf:RDF>
      <cc:Work
         rdf:about="">
        <dc:format>image/svg+xml</dc:format>
        <dc:type
           rdf:resource="http://purl.org/dc/dcmitype/StillImage" />
        <dc:title />
      </cc:Work>
    </rdf:RDF>
  </metadata>
  <g
     inkscape:label="图层 1"
     inkscape:groupmode="layer"
     id="layer1"
     transform="translate(33.212011,-78.890115)">
    <path
       class="st0"
       d="m 43.309663,190.02724 c 0,-6.35452 4.916393,-11.6388 11.270903,-12.14047 6.321077,-0.50166 12.742482,-0.73579 19.197322,-0.73579 6.45485,0 12.8428,0.26756 19.163894,0.73579 6.354499,0.50167 11.270898,5.78595 11.270898,12.14047 v 15.8194 l -17.157222,4.91638 c -3.7458,1.07024 -6.32105,4.48161 -6.32105,8.36121 v 49.43145 c 0,5.81939 4.08027,10.80266 9.799328,11.93978 l 36.989994,7.39131 c 1.63878,0.33445 2.80936,1.73914 2.80936,3.41136 v 7.59199 H 17.222709 v -7.59199 c 0,-1.67222 1.170569,-3.07691 2.809365,-3.41136 l 36.956519,-7.39131 c 5.685625,-1.13712 9.799325,-6.12039 9.799325,-11.93978 v -49.43145 c 0,-3.8796 -2.57524,-7.29097 -6.321059,-8.36121 l -17.157196,-4.91638 z m 46.956519,-80.86956 c 0.06691,-0.40134 0.100363,-0.80267 0.100363,-1.20401 0,-4.68229 -3.712367,-8.494995 -8.327757,-8.695665 -2.74248,-0.2341 -5.51839,-0.36789 -8.29431,-0.36789 -2.77592,0 -5.55184,0.13379 -8.26087,0.36789 -4.648833,0.20067 -8.327754,4.013375 -8.327754,8.695665 0,0.40134 0.0335,0.83613 0.100362,1.20401 -40.167225,7.72575 -70.468227,43.01003 -70.468227,85.3846 0,32.50839 17.8595309,60.86958 44.280934,75.78596 L 43.376617,254.24128 C 21.67093,243.17104 6.7879878,220.59579 6.7879878,194.54228 c 0,-36.98995 29.9665562,-66.9565 66.9565202,-66.9565 36.989952,0 66.956532,29.96655 66.956532,66.9565 0,26.05351 -14.88295,48.62876 -36.58865,59.699 5.01672,6.55518 8.5619,11.20401 12.30771,16.08697 26.42141,-14.91639 44.28094,-43.27758 44.28094,-75.78597 0,-42.37457 -30.30101,-77.65885 -70.434804,-85.3846 z"
       id="path12"
       style="stroke-width:0.334448" />
    <path
       d="m 400.10032,147.92332 c -3.11193,6.88355 -6.38349,9.88412 -10.29337,9.88412 -7.74,0 -15.55976,0 -23.29977,0 -10.85194,0 -21.70391,0 -32.47604,-0.17676 -10.3732,0 -19.70905,6.88354 -28.16717,19.94473 -15.16082,23.12172 -30.24184,46.24349 -45.40266,69.36522 -1.99483,3.0006 -2.71299,6.35407 -2.15444,10.4137 0.5586,4.23603 2.07464,6.53049 4.46848,6.53049 20.50697,0 40.93417,0.17677 61.44114,-0.17675 11.25094,-0.3529 21.14537,-9.53109 30.24185,-24.00425 13.40532,-21.18021 27.12983,-41.47798 40.53518,-62.48171 6.30372,-9.88403 12.84681,-19.23872 20.34742,-23.47475 5.26639,-3.00055 10.69237,-5.82452 16.03852,-6.00106 53.78098,-0.52969 107.72154,-0.70599 161.58228,-0.88251 0.63833,0 1.3565,0 1.99485,0.17677 1.91504,0.35288 3.19176,2.47096 3.83008,6.53057 0.71816,4.05955 0.3192,7.76607 -1.11707,10.41362 -3.59074,6.17755 -7.26124,12.35512 -11.09135,18.00321 -6.06435,9.00158 -12.04886,18.35615 -18.43235,26.12224 -7.02185,8.64864 -14.92144,12.35513 -22.9806,12.53168 -11.4903,0.35287 -22.98059,0.17677 -34.47089,0.35287 -0.63832,0 -1.19689,0.17677 -1.83525,0.17677 0,0.35293 -0.08,0.88252 -0.08,1.23554 3.19179,3.17704 6.38352,6.35407 9.57526,9.35457 14.28307,13.2377 29.12471,22.23927 44.36532,27.88736 5.82491,2.11803 11.72968,3.53005 17.63441,4.58907 2.87259,0.52969 4.46844,4.23607 6.14413,10.06059 -1.19693,0 -1.99486,0 -2.79277,0 -11.57011,0.17676 -23.14021,0.70598 -34.7103,0.52967 -11.25091,-0.17675 -22.42204,-0.70598 -33.67292,-1.9415 -14.12338,-1.58856 -27.52873,-10.76666 -40.61488,-22.06275 -12.36802,-10.76663 -24.73605,-21.70978 -37.90203,-26.65181 -2.31399,-0.88251 -4.70784,-1.76499 -7.10164,-3.35354 2.31402,-3.88302 3.98971,-9.88415 7.34103,-9.88415 19.70902,0 39.49786,-0.17615 59.20694,-0.17615 13.6447,0 25.77334,-9.35465 36.7051,-27.35786 1.75544,-2.82401 3.59069,-5.648 5.34619,-8.29558 1.91504,-3.00051 2.79274,-7.41308 2.23421,-11.64911 -0.47877,-3.53 -1.99485,-5.47158 -4.54823,-5.47158 -19.46969,0 -38.93936,-0.17617 -58.409,0.17677 -12.8468,0.17675 -24.17749,10.41359 -34.5507,26.82834 -11.80947,18.70918 -23.77852,37.06541 -35.82739,55.2451 -5.50578,8.29558 -11.09133,16.06167 -16.99606,22.76872 -7.02185,7.94261 -14.76183,11.64912 -22.74121,11.64912 -49.71149,0 -99.50274,-0.17677 -149.21425,-0.3529 -4.62804,0 -9.33584,0.17677 -13.96387,0 -4.06953,-0.17614 -6.38353,-8.29555 -4.46848,-15.3556 0.39895,-1.5885 1.11712,-3.00054 1.83523,-4.05953 6.86228,-10.59014 13.72455,-21.00373 20.6666,-31.59384 9.25608,-14.1202 18.51213,-28.06389 27.68841,-42.36052 7.89961,-12.35517 16.11836,-23.82777 25.61381,-28.76984 4.62801,-2.471 9.41565,-4.76556 14.12349,-4.76556 36.14657,-0.35289 72.37287,0 108.51947,0 0.39895,0 0.87772,0.17676 1.83522,0.52967 z"
       id="path23"
       style="stroke-width:1.18674" />
    <text
       xml:space="preserve"
       style="font-style:normal;font-variant:normal;font-weight:bold;font-stretch:normal;font-size:175.113px;line-height:1;font-family:Arial;-inkscape-font-specification:'Arial Bold';fill:#000000;fill-opacity:1;stroke:none;stroke-width:4.37783"
       x="619.58667"
       y="272.72623"
       id="text16"><tspan
         sodipodi:role="line"
         id="tspan14"
         x="619.58667"
         y="272.72623"
         style="font-style:normal;font-variant:normal;font-weight:bold;font-stretch:normal;font-family:Arial;-inkscape-font-specification:'Arial Bold';stroke-width:4.37783">12307</tspan></text>
  </g>
  <style
     type="text/css"
     id="style10">
	.st0{fill:#E60012;}
</style>
</svg>
